<svg width="324" height="76" viewBox="0 0 324 76" fill="none" xmlns="http://www.w3.org/2000/svg">
<g filter="url(#filter0_d_67_1152)">
<path d="M18.705 37.29V35.155H43.415V37.29H18.705ZM53.32 54.09L58.78 55.63V56.645H39.46V55.63L45.795 54.16L28.365 14.575H29.275L13.735 53.915L20.35 55.63V56.645H6.00004V55.63L11.355 53.845L30.5 6.00002H31.83L53.32 54.09ZM76.1761 33.905C79.0961 33.905 81.4061 33.135 83.1061 31.595C84.8261 30.055 85.6861 27.805 85.6861 24.845C85.6861 23.045 85.3061 21.505 84.5461 20.225C83.7861 18.925 82.5461 17.925 80.8261 17.225C79.1061 16.525 76.8061 16.175 73.9261 16.175H66.0961L66.1261 14.345H76.1761C80.0361 14.345 83.0961 14.795 85.3561 15.695C87.6161 16.595 89.2361 17.825 90.2161 19.385C91.2161 20.945 91.7161 22.715 91.7161 24.695C91.7161 26.455 91.2461 28.075 90.3061 29.555C89.3861 31.035 88.0061 32.265 86.1661 33.245C84.3261 34.205 82.0461 34.785 79.3261 34.985V34.865C81.0461 34.885 82.4461 35.105 83.5261 35.525C84.6261 35.925 85.5461 36.565 86.2861 37.445C87.0461 38.325 87.7661 39.515 88.4461 41.015L92.7661 50.255C93.5261 51.875 94.1861 53.055 94.7461 53.795C95.3261 54.535 95.9561 54.995 96.6361 55.175C97.3161 55.355 98.1861 55.445 99.2461 55.445V56.645C97.2261 56.805 95.5561 56.865 94.2361 56.825C92.9361 56.805 91.8661 56.625 91.0261 56.285C90.1861 55.945 89.4661 55.405 88.8661 54.665C88.2861 53.905 87.6961 52.895 87.0961 51.635L82.2961 41.405C81.6161 39.885 80.9961 38.715 80.4361 37.895C79.8761 37.075 79.2761 36.515 78.6361 36.215C78.0161 35.895 77.2261 35.735 76.2661 35.735H66.1261L66.0961 33.905H76.1761ZM70.7161 14.345V54.395L75.9361 55.715V56.645H59.6161V55.715L64.8361 54.395V16.595L59.6161 15.275V14.345H70.7161ZM122.347 55.805C123.887 55.805 125.417 55.535 126.937 54.995C128.477 54.455 130.027 53.565 131.587 52.325L130.357 53.645L135.367 45.155H136.297L134.257 55.415C132.277 56.095 130.337 56.565 128.437 56.825C126.557 57.105 124.537 57.245 122.377 57.245C119.057 57.245 115.977 56.785 113.137 55.865C110.317 54.925 107.837 53.535 105.697 51.695C103.577 49.835 101.927 47.535 100.747 44.795C99.5665 42.055 98.9765 38.875 98.9765 35.255C98.9765 30.955 99.9265 27.195 101.827 23.975C103.747 20.755 106.417 18.245 109.837 16.445C113.257 14.645 117.237 13.745 121.777 13.745C123.337 13.745 124.857 13.845 126.337 14.045C127.817 14.225 129.397 14.515 131.077 14.915L129.487 15.245L132.847 12.695H133.297L135.787 27.155L134.887 27.305L129.277 17.495L130.477 18.725C128.677 17.565 126.977 16.725 125.377 16.205C123.777 15.685 122.117 15.425 120.397 15.425C118.277 15.425 116.287 15.775 114.427 16.475C112.587 17.155 110.967 18.245 109.567 19.745C108.187 21.225 107.107 23.165 106.327 25.565C105.547 27.965 105.157 30.895 105.157 34.355C105.157 38.035 105.607 41.225 106.507 43.925C107.427 46.625 108.677 48.855 110.257 50.615C111.837 52.375 113.657 53.685 115.717 54.545C117.797 55.385 120.007 55.805 122.347 55.805ZM192.733 54.395L197.953 55.715V56.645H181.543V55.715L186.763 54.395L184.033 17.705L184.453 17.765L167.713 57.245H166.633L148.873 18.635L149.293 18.545L146.983 54.395L152.683 55.715V56.645H139.633V55.715L144.883 54.395L147.373 17.165L142.033 15.275V14.345H153.283L169.693 50.165H168.643L183.793 14.345H195.403V15.275L189.733 16.595L192.733 54.395ZM217.44 55.715V56.645H201.12V55.715L206.34 54.395V16.595L201.12 15.275V14.345H217.44V15.275L212.22 16.595V54.395L217.44 55.715ZM227.115 54.395V17.075L221.385 15.275V14.345H232.965L258.285 48.545L256.725 53.975V16.595L250.935 15.275V14.345H264.135V15.275L258.915 16.595V57.245H257.745L228.435 17.825L229.305 16.715V54.395L235.095 55.715V56.645H221.895V55.715L227.115 54.395ZM303.013 35.105C303.013 28.825 301.323 24.135 297.943 21.035C294.563 17.935 289.683 16.385 283.303 16.385H275.773V14.345H284.983C290.163 14.345 294.553 15.125 298.153 16.685C301.753 18.225 304.483 20.495 306.343 23.495C308.203 26.495 309.133 30.145 309.133 34.445C309.133 39.305 308.093 43.385 306.013 46.685C303.933 49.965 301.093 52.445 297.493 54.125C293.913 55.805 289.853 56.645 285.313 56.645H275.773V54.605H284.293C288.193 54.605 291.533 53.955 294.313 52.655C297.113 51.335 299.263 49.245 300.763 46.385C302.263 43.505 303.013 39.745 303.013 35.105ZM268.093 56.645V55.715L273.313 54.395V16.595L268.093 15.275V14.345H279.193V56.645H268.093Z" fill="black"/>
</g>
<defs>
<filter id="filter0_d_67_1152" x="0" y="0" width="323.133" height="71.2451" filterUnits="userSpaceOnUse" color-interpolation-filters="sRGB">
<feFlood flood-opacity="0" result="BackgroundImageFix"/>
<feColorMatrix in="SourceAlpha" type="matrix" values="0 0 0 0 0 0 0 0 0 0 0 0 0 0 0 0 0 0 127 0" result="hardAlpha"/>
<feOffset dx="4" dy="4"/>
<feGaussianBlur stdDeviation="5"/>
<feComposite in2="hardAlpha" operator="out"/>
<feColorMatrix type="matrix" values="0 0 0 0 1 0 0 0 0 0.952092 0 0 0 0 0.712553 0 0 0 0.25 0"/>
<feBlend mode="normal" in2="BackgroundImageFix" result="effect1_dropShadow_67_1152"/>
<feBlend mode="normal" in="SourceGraphic" in2="effect1_dropShadow_67_1152" result="shape"/>
</filter>
</defs>
</svg>
