<svg width="392" height="85" viewBox="0 0 392 85" fill="none" xmlns="http://www.w3.org/2000/svg">
<g filter="url(#filter0_d_68_1158)">
<path d="M52.8398 34.1199C52.8398 25.5333 50.6131 19.1066 46.1598 14.8399C41.7065 10.5466 35.1731 8.39995 26.5598 8.39995H16.6798V5.99995H28.8398C35.7465 5.99995 41.6131 7.06662 46.4398 9.19995C51.2931 11.3333 54.9865 14.4399 57.5198 18.5199C60.0798 22.5733 61.3598 27.4933 61.3598 33.28C61.3598 39.8666 59.9598 45.3866 57.1598 49.84C54.3598 54.2666 50.5465 57.6 45.7198 59.84C40.9198 62.08 35.4798 63.2 29.3998 63.2H16.6798V60.8H27.9998C33.2265 60.8 37.6931 59.9066 41.3998 58.12C45.1065 56.3333 47.9331 53.48 49.8798 49.56C51.8531 45.6399 52.8398 40.4933 52.8398 34.1199ZM5.99979 63.2V62.04L13.1598 60.36V8.79995L5.99979 7.15995V5.99995H21.3998V63.2H5.99979ZM74.7348 46.9099V44.9H95.6148V46.9099H74.7348ZM103.835 60.89L108.455 62.27V63.2H92.2548V62.27L97.6548 60.95L82.8948 27.1999H83.9148L70.6548 60.8L76.1748 62.27V63.2H63.8148V62.27L68.4048 60.74L84.6648 20.2999H85.8648L103.835 60.89ZM125.541 40.46C128.461 40.46 130.771 39.69 132.471 38.15C134.191 36.6099 135.051 34.3599 135.051 31.3999C135.051 29.5999 134.671 28.0599 133.911 26.7799C133.151 25.4799 131.911 24.48 130.191 23.78C128.471 23.0799 126.171 22.7299 123.291 22.7299H115.461L115.491 20.8999H125.541C129.401 20.8999 132.461 21.3499 134.721 22.25C136.981 23.15 138.601 24.3799 139.581 25.9399C140.581 27.4999 141.081 29.2699 141.081 31.2499C141.081 33.0099 140.611 34.6299 139.671 36.1099C138.751 37.5899 137.371 38.8199 135.531 39.8C133.691 40.7599 131.411 41.3399 128.691 41.5399V41.42C130.411 41.44 131.811 41.66 132.891 42.0799C133.991 42.48 134.911 43.12 135.651 43.9999C136.411 44.88 137.131 46.07 137.811 47.57L142.131 56.81C142.891 58.43 143.551 59.61 144.111 60.35C144.691 61.09 145.321 61.55 146.001 61.73C146.681 61.91 147.551 62 148.611 62V63.2C146.591 63.36 144.921 63.42 143.601 63.38C142.301 63.36 141.231 63.18 140.391 62.84C139.551 62.5 138.831 61.96 138.231 61.22C137.651 60.46 137.061 59.45 136.461 58.19L131.661 47.96C130.981 46.4399 130.361 45.27 129.801 44.45C129.241 43.63 128.641 43.07 128.001 42.7699C127.381 42.45 126.591 42.29 125.631 42.29H115.491L115.461 40.46H125.541ZM120.081 20.8999V60.95L125.301 62.27V63.2H108.981V62.27L114.201 60.95V23.15L108.981 21.8299V20.8999H120.081ZM171.405 62.36C172.945 62.36 174.475 62.09 175.995 61.55C177.535 61.01 179.085 60.12 180.645 58.88L179.415 60.2L184.425 51.71H185.355L183.315 61.97C181.335 62.65 179.395 63.12 177.495 63.38C175.615 63.66 173.595 63.8 171.435 63.8C168.115 63.8 165.035 63.34 162.195 62.42C159.375 61.48 156.895 60.09 154.755 58.25C152.635 56.39 150.985 54.09 149.805 51.35C148.625 48.61 148.035 45.43 148.035 41.8099C148.035 37.5099 148.985 33.7499 150.885 30.5299C152.805 27.31 155.475 24.8 158.895 23C162.315 21.1999 166.295 20.2999 170.835 20.2999C172.395 20.2999 173.915 20.3999 175.395 20.5999C176.875 20.78 178.455 21.07 180.135 21.47L178.545 21.7999L181.905 19.25H182.355L184.845 33.7099L183.945 33.8599L178.335 24.0499L179.535 25.2799C177.735 24.12 176.035 23.28 174.435 22.7599C172.835 22.2399 171.175 21.9799 169.455 21.9799C167.335 21.9799 165.345 22.3299 163.485 23.0299C161.645 23.7099 160.025 24.7999 158.625 26.3C157.245 27.78 156.165 29.72 155.385 32.12C154.605 34.5199 154.215 37.4499 154.215 40.91C154.215 44.59 154.665 47.78 155.565 50.48C156.485 53.18 157.735 55.41 159.315 57.17C160.895 58.93 162.715 60.24 164.775 61.1C166.855 61.94 169.065 62.36 171.405 62.36ZM260.531 60.36L267.691 62.04V63.2H244.971V62.04L252.131 60.36L248.331 10.12L248.891 10.1999L226.291 64H224.931L200.691 11.56L201.251 11.4399L198.051 60.36L206.011 62.04V63.2H188.371V62.04L195.531 60.36L198.851 9.75995L191.531 7.15995V5.99995H207.011L229.371 54.44H227.851L248.011 5.99995H264.331V7.15995L256.411 8.79995L260.531 60.36ZM286.524 62.27V63.2H270.204V62.27L275.424 60.95V23.15L270.204 21.8299V20.8999H286.524V21.8299L281.304 23.15V60.95L286.524 62.27ZM295.599 60.95V23.63L289.869 21.8299V20.8999H301.449L326.769 55.1L325.209 60.53V23.15L319.419 21.8299V20.8999H332.619V21.8299L327.399 23.15V63.8H326.229L296.919 24.38L297.789 23.2699V60.95L303.579 62.27V63.2H290.379V62.27L295.599 60.95ZM370.896 41.6599C370.896 35.3799 369.206 30.6899 365.826 27.59C362.446 24.49 357.566 22.94 351.186 22.94H343.656V20.8999H352.866C358.046 20.8999 362.436 21.6799 366.036 23.24C369.636 24.7799 372.367 27.0499 374.227 30.05C376.087 33.05 377.016 36.7 377.016 41C377.016 45.86 375.976 49.94 373.897 53.24C371.817 56.52 368.977 59 365.376 60.68C361.796 62.36 357.736 63.2 353.196 63.2H343.656V61.16H352.176C356.076 61.16 359.416 60.51 362.196 59.21C364.996 57.89 367.146 55.8 368.646 52.94C370.146 50.06 370.896 46.3 370.896 41.6599ZM335.976 63.2V62.27L341.196 60.95V23.15L335.976 21.8299V20.8999H347.076V63.2H335.976Z" fill="white"/>
</g>
<defs>
<filter id="filter0_d_68_1158" x="0" y="0" width="391.017" height="78" filterUnits="userSpaceOnUse" color-interpolation-filters="sRGB">
<feFlood flood-opacity="0" result="BackgroundImageFix"/>
<feColorMatrix in="SourceAlpha" type="matrix" values="0 0 0 0 0 0 0 0 0 0 0 0 0 0 0 0 0 0 127 0" result="hardAlpha"/>
<feOffset dx="4" dy="4"/>
<feGaussianBlur stdDeviation="5"/>
<feComposite in2="hardAlpha" operator="out"/>
<feColorMatrix type="matrix" values="0 0 0 0 1 0 0 0 0 0.952092 0 0 0 0 0.712553 0 0 0 0.25 0"/>
<feBlend mode="normal" in2="BackgroundImageFix" result="effect1_dropShadow_68_1158"/>
<feBlend mode="normal" in="SourceGraphic" in2="effect1_dropShadow_68_1158" result="shape"/>
</filter>
</defs>
</svg>
