<svg width="255" height="60" viewBox="0 0 255 60" fill="none" xmlns="http://www.w3.org/2000/svg">
<path d="M10.92 27.71V25.7H31.8V27.71H10.92ZM40.02 41.69L44.64 43.07V44H28.44V43.07L33.84 41.75L19.08 8H20.1L6.84004 41.6L12.36 43.07V44H3.90299e-05V43.07L4.59004 41.54L20.85 1.1H22.05L40.02 41.69ZM59.1564 25.25C61.5064 25.25 63.3898 24.6333 64.8064 23.4C66.2231 22.15 66.9314 20.3333 66.9314 17.95C66.9314 16.4833 66.6148 15.225 65.9814 14.175C65.3481 13.125 64.3148 12.3167 62.8814 11.75C61.4481 11.1833 59.5231 10.9 57.1064 10.9H50.6564L50.7064 9.175H59.1314C62.2481 9.175 64.7231 9.55 66.5564 10.3C68.4064 11.05 69.7314 12.075 70.5314 13.375C71.3481 14.6583 71.7564 16.1167 71.7564 17.75C71.7564 19.2 71.3814 20.5333 70.6314 21.75C69.8981 22.9667 68.7981 23.975 67.3314 24.775C65.8648 25.5583 64.0564 26.05 61.9064 26.25V26.125C63.2564 26.1583 64.3564 26.35 65.2064 26.7C66.0731 27.05 66.8064 27.5917 67.4064 28.325C68.0064 29.0583 68.5731 30.0583 69.1064 31.325L72.4314 38.775C73.0148 40.0583 73.5314 41 73.9814 41.6C74.4314 42.1833 74.9231 42.55 75.4564 42.7C76.0064 42.8333 76.7064 42.9 77.5564 42.9V44C75.9064 44.1333 74.5564 44.1833 73.5064 44.15C72.4731 44.1333 71.6231 43.9833 70.9564 43.7C70.2898 43.4167 69.7231 42.9667 69.2564 42.35C68.8064 41.7333 68.3481 40.9 67.8814 39.85L64.2814 31.8C63.7314 30.5167 63.2314 29.525 62.7814 28.825C62.3314 28.125 61.8398 27.6417 61.3064 27.375C60.7731 27.1083 60.0898 26.975 59.2564 26.975H50.7064L50.6564 25.25H59.1564ZM54.4314 9.175V42.025L58.6814 43.175V44H45.4814V43.175L49.7314 42.025V11.125L45.4814 10V9.175H54.4314ZM97.0686 43.05C98.3519 43.05 99.6186 42.8583 100.869 42.475C102.135 42.075 103.41 41.425 104.694 40.525L103.644 41.6L107.644 34.6H108.569L107.069 42.875C105.552 43.4417 103.969 43.85 102.319 44.1C100.669 44.3667 98.9102 44.5 97.0436 44.5C94.2769 44.5 91.7186 44.1167 89.3686 43.35C87.0186 42.5667 84.9686 41.4167 83.2186 39.9C81.4852 38.3667 80.1352 36.4833 79.1686 34.25C78.2019 32.0167 77.7186 29.4333 77.7186 26.5C77.7186 22.9333 78.5102 19.8167 80.0936 17.15C81.6769 14.4667 83.9019 12.3833 86.7686 10.9C89.6519 9.41666 93.0186 8.675 96.8686 8.675C98.1186 8.675 99.3269 8.75 100.494 8.9C101.677 9.05 102.977 9.29166 104.394 9.625L103.044 9.9L105.944 7.775H106.319L108.244 19.675L107.419 19.825L102.869 11.825L103.869 12.85C102.402 11.9333 101.027 11.275 99.7436 10.875C98.4602 10.475 97.1186 10.275 95.7186 10.275C93.8186 10.275 92.0686 10.575 90.4686 11.175C88.8686 11.7583 87.4852 12.6667 86.3186 13.9C85.1686 15.1167 84.2686 16.6917 83.6186 18.625C82.9852 20.5417 82.6686 22.8417 82.6686 25.525C82.6686 28.4917 83.0436 31.075 83.7936 33.275C84.5436 35.4583 85.5769 37.275 86.8936 38.725C88.2102 40.175 89.7352 41.2583 91.4686 41.975C93.2186 42.6917 95.0852 43.05 97.0686 43.05ZM155.052 42.025L159.302 43.175V44H146.077V43.175L150.327 42.025L148.127 12.15L148.477 12.2L134.652 44.5H133.727L119.202 12.825L119.552 12.75L117.702 42.025L122.252 43.175V44H111.527V43.175L115.802 42.025L117.902 11.525L113.527 10V9.175H122.652L136.077 38.675H135.277L147.902 9.175H157.177V10L152.627 11.125L155.052 42.025ZM175.332 43.175V44H162.132V43.175L166.382 42.025V11.125L162.132 10V9.175H175.332V10L171.082 11.125V42.025L175.332 43.175ZM183.45 42.025V11.525L178.825 10V9.175H188.05L209.05 37.375L207.775 41.375V11.15L203.075 10V9.175H214V10L209.725 11.15V44.5H208.725L184.65 12.25L185.4 11.325V42.025L190.1 43.175V44H179.175V43.175L183.45 42.025ZM246.38 26.225C246.38 21.1083 244.955 17.3 242.105 14.8C239.272 12.2833 235.222 11.025 229.955 11.025H223.58V9.175H231.305C235.639 9.175 239.289 9.80833 242.255 11.075C245.239 12.325 247.489 14.1833 249.005 16.65C250.539 19.1 251.305 22.1083 251.305 25.675C251.305 29.6583 250.439 33.0083 248.705 35.725C246.972 38.4417 244.614 40.5 241.63 41.9C238.664 43.3 235.297 44 231.53 44H223.58V42.15H230.705C233.939 42.15 236.722 41.6167 239.055 40.55C241.405 39.4667 243.214 37.7583 244.48 35.425C245.747 33.075 246.38 30.0083 246.38 26.225ZM217.405 44V43.175L221.655 42.025V11.125L217.405 10V9.175H226.355V44H217.405Z" fill="white"/>
</svg>
